<svg width="84" height="100" viewBox="0 0 84 100" fill="none" xmlns="http://www.w3.org/2000/svg">
<path d="M37.5787 0.000682622C34.4423 0.0164978 31.4471 0.306782 28.8117 0.812865C21.0479 2.30134 19.6383 5.41685 19.6383 11.1624V18.7505H37.985V21.2798H19.6383H12.7529C7.42085 21.2798 2.75194 24.7578 1.29157 31.3741C-0.39296 38.9579 -0.467678 43.6903 1.29157 51.609C2.59572 57.5034 5.71021 61.7033 11.0423 61.7033H17.3503V52.6069C17.3503 46.0352 22.5898 40.2385 28.8117 40.2385H47.137C52.2381 40.2385 56.3104 35.6805 56.3104 30.121V11.1624C56.3104 5.76664 52.1159 1.71339 47.137 0.812865C43.9853 0.24352 40.7152 -0.0151328 37.5787 0.000682622ZM27.657 6.10365C29.5521 6.10365 31.0997 7.81055 31.0997 9.9093C31.0997 12.0006 29.5521 13.6917 27.657 13.6917C25.7551 13.6917 24.2143 12.0006 24.2143 9.9093C24.2143 7.81055 25.7551 6.10365 27.657 6.10365Z" fill="url(#paint0_linear_1_215)"/>
<path d="M58.5982 21.2799V30.1211C58.5982 36.9755 53.2433 42.7447 47.1369 42.7447H28.8115C23.7919 42.7447 19.6382 47.4069 19.6382 52.8622V71.8208C19.6382 77.2166 23.9617 80.3903 28.8115 81.9383C34.6191 83.7915 40.1882 84.1264 47.1369 81.9383C51.7558 80.487 56.3103 77.5664 56.3103 71.8208V64.2327H37.9849V61.7034H56.3103H65.4836C70.8157 61.7034 72.8026 57.6672 74.657 51.6091C76.5724 45.3724 76.4909 39.3747 74.657 31.3742C73.3392 25.6138 70.8225 21.2799 65.4836 21.2799H58.5982ZM48.2916 69.2915C50.1935 69.2915 51.7343 70.9826 51.7343 73.0739C51.7343 75.1727 50.1935 76.8796 48.2916 76.8796C46.3965 76.8796 44.8489 75.1727 44.8489 73.0739C44.8489 70.9826 46.3965 69.2915 48.2916 69.2915Z" fill="url(#paint1_linear_1_215)"/>
<path opacity="0.44382" d="M38.1931 100C51.7716 100 62.7792 97.6836 62.7792 94.8263C62.7792 91.9689 51.7716 89.6526 38.1931 89.6526C24.6145 89.6526 13.6069 91.9689 13.6069 94.8263C13.6069 97.6836 24.6145 100 38.1931 100Z" fill="url(#paint2_radial_1_215)"/>
<defs>
<linearGradient id="paint0_linear_1_215" x1="-2.28464e-07" y1="-2.15371e-07" x2="45.1726" y2="35.4708" gradientUnits="userSpaceOnUse">
<stop stop-color="#5A9FD4"/>
<stop offset="1" stop-color="#306998"/>
</linearGradient>
<linearGradient id="paint1_linear_1_215" x1="47.8507" y1="72.436" x2="30.9873" y2="50.6608" gradientUnits="userSpaceOnUse">
<stop stop-color="#FFD43B"/>
<stop offset="1" stop-color="#FFE873"/>
</linearGradient>
<radialGradient id="paint2_radial_1_215" cx="0" cy="0" r="1" gradientUnits="userSpaceOnUse" gradientTransform="translate(38.1931 94.8263) rotate(-90) scale(5.1737 20.955)">
<stop stop-color="#B8B8B8" stop-opacity="0.498039"/>
<stop offset="1" stop-color="#7F7F7F" stop-opacity="0"/>
</radialGradient>
</defs>
</svg>
